<svg xmlns="http://www.w3.org/2000/svg" width="1246" height="406" viewBox="0 0 1246 406" version="1.1"><path d="M 159 44.600 C 148.227 46.555, 129.073 52.879, 119.712 57.572 C 93.135 70.896, 70.417 94.891, 66.474 113.804 C 65.112 120.334, 65.134 121.354, 66.745 126.210 C 68.266 130.795, 69.095 131.800, 72.962 133.750 C 78.240 136.412, 81.969 136.570, 88.325 134.405 C 94.078 132.445, 97.859 128.208, 104.454 116.334 C 117.904 92.119, 125.911 83.099, 140.218 76.045 C 151.736 70.367, 160.290 68.792, 177.500 69.182 C 190.444 69.476, 191.968 69.716, 197.702 72.365 C 204.630 75.565, 214.360 84.861, 217.752 91.520 C 225.482 106.694, 224.631 123.560, 215.511 135.985 C 207.427 146.998, 182.078 159, 166.903 159 C 162.573 159, 162.259 156.678, 165.423 148.065 C 169.728 136.348, 170.975 131.022, 170.988 124.307 C 170.998 119.033, 170.670 117.882, 168.777 116.557 C 165.739 114.428, 159.700 114.602, 155.098 116.950 C 146.642 121.264, 143.567 125.993, 119.953 171 C 113.749 182.825, 104.152 200.600, 98.625 210.500 C 79.928 243.996, 77.761 248.609, 77.228 256.056 C 76.373 268.001, 80.744 274.885, 89.732 275.748 C 98.222 276.564, 106.184 271.811, 113.478 261.574 C 121.600 250.174, 135.101 222.052, 144.479 197 C 146.023 192.875, 147.727 188.938, 148.266 188.250 C 148.910 187.427, 152.192 186.990, 157.872 186.969 C 172.893 186.916, 190.209 185.256, 199 183.026 C 203.675 181.840, 212 178.717, 217.500 176.086 C 251.220 159.956, 265.795 133.248, 259.566 99 C 257.086 85.363, 251.064 75.019, 238.953 63.594 C 230.417 55.542, 218.419 49.318, 204.956 45.958 C 193.526 43.105, 170.916 42.437, 159 44.600 M 291.819 113.580 C 279.941 117.235, 274.114 134.324, 282.239 141.677 C 284.769 143.967, 290.112 146, 293.600 146 C 299.069 146, 306.325 143.654, 309.514 140.854 C 315.980 135.176, 318.091 122.122, 313.396 116.852 C 309.133 112.067, 300.828 110.807, 291.819 113.580 M 382 157.882 C 366.284 162.954, 349.267 176.629, 334.477 196.072 C 327.252 205.572, 310.239 222.313, 297.475 232.484 C 284.479 242.840, 272.191 247.313, 265.934 243.965 C 261.002 241.325, 264.635 228.863, 278.440 201.069 C 287.423 182.984, 287.999 181.450, 287.985 175.661 C 287.967 168.139, 286.539 165.052, 281.986 162.696 C 276.513 159.863, 266.176 162.060, 262.185 166.904 C 259.895 169.682, 241.647 208.575, 237.038 220.500 C 231.131 235.783, 229.821 250.847, 233.610 259.918 C 238.145 270.774, 250.487 275.616, 267.114 273.062 C 278.386 271.330, 289.283 265.624, 305.729 252.841 C 309.154 250.179, 312.621 248, 313.433 248 C 314.334 248, 315.171 249.392, 315.580 251.573 C 315.948 253.539, 317.977 257.733, 320.088 260.894 C 324.742 267.864, 330.558 271.342, 340.434 273.062 C 360.679 276.587, 383.908 268.870, 414.242 248.540 C 421.250 243.843, 427.213 240, 427.492 240 C 427.771 240, 428 240.539, 428 241.198 C 428 242.989, 413.288 271.689, 400.181 295.467 C 393.825 306.998, 387.321 319.534, 385.729 323.324 C 380.511 335.742, 381.033 345.415, 387.091 348.547 C 390.695 350.411, 400.286 350.421, 403.875 348.565 C 410.609 345.083, 416.706 335.417, 425.995 313.500 C 441.361 277.246, 459.282 242.070, 470.256 226.622 C 484.183 207.018, 503.313 189.644, 515.500 185.531 C 520.814 183.738, 529.728 183.096, 531.772 184.359 C 536.035 186.994, 530.481 194.971, 508.315 218.049 C 498.517 228.251, 488.713 239.199, 486.528 242.380 C 483.021 247.485, 482.510 248.974, 482.164 255.099 C 481.700 263.319, 482.888 266.715, 487.271 269.697 C 493.739 274.096, 509.123 275.314, 522.500 272.485 C 535.496 269.736, 554.088 259.144, 578.500 240.582 C 584 236.400, 589.175 233.100, 590 233.249 C 591.129 233.453, 591.637 235.499, 592.053 241.510 C 593.097 256.595, 598.131 265.471, 608.529 270.558 C 613.216 272.851, 615.270 273.235, 622.753 273.216 C 628.346 273.202, 633.303 272.577, 636.500 271.482 C 644.183 268.849, 654.503 261.412, 664.161 251.547 C 668.982 246.622, 673.215 242.881, 673.567 243.233 C 673.919 243.585, 674.783 247.192, 675.487 251.249 C 680.290 278.905, 699.912 281.064, 732.500 257.521 C 737.450 253.945, 741.916 251.154, 742.424 251.318 C 742.932 251.482, 743.239 254.608, 743.106 258.265 C 742.683 269.946, 746.247 274, 756.939 274 C 772.897 274, 791.510 262.756, 813.833 239.632 C 818.415 234.884, 822.634 231, 823.208 231 C 825.411 231, 822.659 238.121, 812.819 257.890 C 805.446 272.701, 800.341 281.457, 794.161 289.890 C 777.468 312.668, 770.897 324.851, 768.438 337.583 C 765.738 351.567, 768.255 359.404, 776.454 362.535 C 780.517 364.087, 781.769 364.149, 786.788 363.043 C 795.428 361.139, 799.875 355.974, 809.736 336.391 C 814.137 327.651, 820.099 314.650, 822.985 307.500 C 825.871 300.350, 829.061 292.867, 830.074 290.872 C 833.755 283.621, 843.981 276.237, 874.711 258.639 C 899.119 244.661, 908.799 239.709, 910.466 240.349 C 911.156 240.613, 912.263 243.005, 912.928 245.665 C 915.592 256.323, 925.266 267.034, 933.903 268.886 C 936.760 269.499, 940.345 270, 941.868 270 C 945.274 270, 953.603 267.588, 961.220 264.397 C 964.366 263.079, 967.448 262, 968.069 262 C 969.707 262, 966.507 267.025, 957.706 278.276 C 947.904 290.806, 932.916 313.231, 928.555 321.890 C 923.907 331.120, 921.794 338.970, 921.692 347.387 C 921.575 356.994, 923.900 361.050, 930.579 362.894 C 936.251 364.460, 943.741 362.028, 948 357.236 C 949.925 355.070, 956.142 344.421, 961.815 333.571 C 984.453 290.275, 990.923 279.749, 998.609 273.714 C 1010.071 264.714, 1045.648 245.556, 1053.120 244.360 L 1056.740 243.781 1057.465 248.617 C 1058.959 258.576, 1066.058 266.913, 1076.581 271.066 C 1084.953 274.370, 1101.093 274.418, 1112.443 271.172 C 1127.714 266.805, 1141.654 257.837, 1151.573 246 C 1154.108 242.975, 1157.070 239.451, 1158.156 238.168 C 1159.500 236.579, 1160.667 236.069, 1161.815 236.568 C 1162.742 236.971, 1165.975 237.973, 1169 238.793 C 1176.491 240.826, 1183.903 239.248, 1191.876 233.924 C 1199.101 229.099, 1220.876 206.774, 1224.669 200.302 C 1229.871 191.426, 1227.585 178.410, 1221.182 180.442 C 1220.052 180.801, 1213.362 186.823, 1206.314 193.824 C 1196.418 203.656, 1191.873 207.402, 1186.354 210.277 C 1179.350 213.926, 1174.848 214.823, 1172.145 213.111 C 1170.613 212.140, 1170.896 206.389, 1172.961 196.500 C 1176.971 177.293, 1167.509 162.683, 1147.632 157.390 C 1131.262 153.031, 1108.285 158.239, 1092.828 169.811 C 1081.414 178.355, 1073.418 188.214, 1066.132 202.727 C 1063.860 207.251, 1060.988 211.612, 1059.751 212.417 C 1058.513 213.222, 1053.784 215.467, 1049.242 217.406 C 1044.700 219.345, 1034.324 224.547, 1026.184 228.966 C 1018.045 233.385, 1010.800 237, 1010.084 237 C 1007.724 237, 1009.822 232.215, 1024.563 203.982 C 1040.209 174.015, 1041.807 169.453, 1038.212 165.013 C 1036.472 162.865, 1035.241 162.501, 1028.577 162.164 C 1024.376 161.952, 1018.902 162.291, 1016.414 162.917 C 1012.177 163.984, 1011.306 163.819, 1002.695 160.308 C 994.905 157.131, 992.107 156.502, 984.383 156.187 C 973.085 155.727, 965.857 157.439, 953.241 163.560 C 945.825 167.159, 942.438 169.590, 936.217 175.776 C 926.587 185.355, 921.735 192.646, 916.440 205.500 L 912.320 215.500 905.410 216.122 C 896.545 216.919, 892.769 218.373, 876.698 227.180 C 854.560 239.311, 852.167 240.500, 851.415 239.749 C 850.470 238.803, 854.264 229.897, 865.690 206.239 C 876.886 183.057, 879.901 175.830, 880.668 170.330 C 881.172 166.718, 880.889 165.798, 878.554 163.463 C 876.191 161.100, 875.346 160.849, 871.721 161.429 C 862.242 162.944, 859.801 164.912, 826.584 197.823 C 808.938 215.306, 792.097 231.499, 789.160 233.806 C 776.497 243.752, 777.911 237.643, 797.560 197.500 C 807.377 177.444, 809.323 172.705, 809.404 168.665 C 809.486 164.544, 809.085 163.472, 806.694 161.415 C 801.059 156.565, 789.055 159.080, 783.660 166.241 C 782.310 168.033, 778.847 175.350, 775.966 182.500 C 767.556 203.367, 766.044 205.924, 760.553 208.557 C 758.874 209.362, 751.875 215.223, 745 221.581 C 732.417 233.218, 721.788 241.132, 716.061 243.128 C 713.576 243.995, 712.479 243.889, 710.499 242.591 C 707.263 240.471, 706.619 237.494, 707.267 227.646 C 707.796 219.599, 713.045 202.596, 720.277 185.499 C 725.170 173.933, 724.725 166.460, 718.966 163.483 C 715.517 161.699, 706.689 161.556, 700.596 163.186 C 696.462 164.291, 695.702 164.160, 689.332 161.244 C 679.199 156.606, 674.272 155.677, 662.708 156.226 C 643.758 157.127, 628.466 165.404, 614.500 182.320 C 609.013 188.967, 604.218 193.565, 599.235 196.960 C 595.240 199.682, 585.565 206.808, 577.735 212.794 C 563.021 224.044, 540.677 239.344, 530.919 244.850 C 524.025 248.741, 516 249.102, 516 245.520 C 516 244.824, 522.366 237.560, 530.146 229.377 C 545.328 213.409, 559.914 195.808, 562.528 190.301 C 565.317 184.421, 566.393 176.076, 565.014 171 C 562.209 160.670, 551.799 155.435, 535.606 156.210 C 524.076 156.762, 515.381 160.247, 499.645 170.623 C 493.515 174.665, 487.938 177.978, 487.250 177.986 C 486.537 177.994, 486 176.766, 486 175.125 C 486 169.780, 484.767 166.040, 482.138 163.410 C 479.846 161.119, 478.886 160.845, 474.440 161.213 C 464.885 162.006, 460.758 167.442, 450.552 192.679 L 443.382 210.408 436.941 211.468 C 431.423 212.376, 428.530 213.786, 416.757 221.309 C 379.143 245.345, 351.935 252.445, 345.457 239.916 C 343.270 235.687, 343.947 230.848, 347.910 222.379 C 354.353 208.610, 366.331 193.302, 374.946 187.826 C 383.008 182.701, 386.332 184.381, 387.436 194.136 C 388.470 203.277, 389.263 204.343, 394.584 203.743 C 400.290 203.100, 403.447 200.941, 407.098 195.186 C 411.208 188.706, 413.003 181.965, 412.985 173.068 C 412.968 164.360, 411.814 161.465, 407.088 158.280 C 404.234 156.357, 402.435 156.008, 395.602 156.054 C 390.717 156.086, 385.316 156.812, 382 157.882 M 974 184.702 C 959.025 186.638, 945.925 199.734, 941.628 217.064 C 939.567 225.374, 939.568 230.287, 941.630 234.633 C 943.825 239.257, 946.598 241, 951.762 241 C 957.623 241, 963.370 237.857, 970.118 230.960 C 983.481 217.303, 993 203.095, 993 196.804 C 993 189.133, 984.011 183.408, 974 184.702 M 1120 184.935 C 1106.039 189.197, 1093.330 205.192, 1090.772 221.720 C 1089.461 230.187, 1090.738 236.064, 1094.997 241.165 C 1097.656 244.350, 1098.089 244.500, 1104.640 244.500 C 1112.788 244.500, 1116.802 242.782, 1124.208 236.123 C 1134.285 227.063, 1140.001 214.631, 1139.998 201.782 C 1139.997 192.891, 1137.962 188.230, 1133 185.752 C 1129.367 183.937, 1124.310 183.619, 1120 184.935 M 651.994 185.934 C 647.066 187.433, 642.998 190.090, 637.719 195.255 C 631.108 201.725, 627.218 208.245, 624.830 216.856 C 619.060 237.666, 629.071 251.350, 643.212 241.983 C 652.133 236.074, 667.065 218.943, 673.991 206.669 C 678.485 198.708, 678.572 193.794, 674.289 189.967 C 669.330 185.536, 659.279 183.718, 651.994 185.934" stroke="none" fill="#28282B" fill-rule="evenodd"/></svg>